<?xml version="1.0" ?><svg xmlns="http://www.w3.org/2000/svg" width="200" height="200" viewBox="0 0 200 200" fill="none"><path d="M104.479 178.89C148.662 178.89 184.479 143.073 184.479 98.89C184.479 54.7072 148.662 18.89 104.479 18.89C60.2967 18.89 24.4795 54.7072 24.4795 98.89C24.4795 143.073 60.2967 178.89 104.479 178.89Z" fill="#FFFAF3"/><path d="M156.719 120.45C159.449 122.6 157.519 126.27 153.679 126.27H130.229C126.389 126.27 124.449 129.94 127.169 132.09L153.169 152.59C155.069 154.09 154.799 156.56 152.619 157.79C145.139 161.96 128.359 168.41 109.649 171.72C109.099 171.82 108.549 171.92 107.999 172.01C107.289 172.13 106.569 172.24 105.849 172.35C105.779 172.35 105.719 172.37 105.649 172.38C99.4692 173.32 93.1592 173.88 86.9492 173.88C80.7392 173.88 74.3492 173.32 68.1492 172.37C67.9092 172.33 67.6592 172.29 67.4192 172.25C66.9492 172.18 66.4692 172.1 65.9992 172.01C65.0692 171.87 64.1392 171.7 63.2092 171.53C44.9592 168.16 28.6992 161.88 21.3792 157.79C19.1992 156.56 18.9292 154.09 20.8192 152.6C20.8192 152.6 27.4092 147.4 33.9592 142.23C40.4192 137.14 46.8192 132.09 46.8192 132.09C49.5392 129.94 47.6092 126.27 43.7692 126.27H20.3292C16.4792 126.27 14.5492 122.6 17.2792 120.45L57.1592 88.99C59.8792 86.84 57.9492 83.17 54.1092 83.17H42.9992C39.1392 83.17 37.2192 79.49 39.9392 77.35L83.5992 42.9C85.2992 41.57 88.0292 41.57 89.7192 42.9L133.389 77.35C136.099 79.49 134.179 83.17 130.329 83.17H119.889C116.049 83.17 114.109 86.84 116.839 88.99L156.719 120.45Z" fill="#03544D"/><path d="M136.479 117.51C135.839 121.96 132.179 124.6 129.589 125.94C129.799 125.92 130.009 125.89 130.229 125.89H153.679C157.519 125.89 159.449 122.22 156.719 120.07L120.479 91.48C120.479 91.48 137.489 110.51 136.489 117.51H136.479Z" fill="#034940"/><path d="M153.169 151.59L129.229 132.71C123.309 137.33 112.579 144.11 94.4887 150.89C67.8587 160.88 31.4087 156.93 19.9287 155.33C20.2287 155.89 20.6987 156.4 21.3787 156.79C28.6987 160.88 44.9587 167.16 63.2087 170.53C64.1387 170.7 65.0687 170.87 65.9987 171.01C66.4687 171.1 66.9487 171.18 67.4187 171.25C67.6587 171.29 67.9087 171.33 68.1487 171.37C74.3487 172.32 80.7087 172.88 86.9487 172.88C93.1887 172.88 99.4687 172.32 105.649 171.38C105.719 171.37 105.779 171.36 105.849 171.35C106.569 171.24 107.289 171.13 107.999 171.01C108.549 170.92 109.099 170.82 109.649 170.72C128.359 167.41 145.139 160.96 152.619 156.79C154.799 155.56 155.069 153.09 153.169 151.59Z" fill="#034940"/><path d="M126.159 128.57C126.159 128.57 104.579 124.47 87.5388 113.79C87.3588 113.68 87.1788 113.56 86.9988 113.44C82.1488 110.35 77.6788 106.73 73.7988 103.15" stroke="#CC362D" stroke-width="1.5" stroke-miterlimit="10"/><path d="M62.8291 147.38C65.8391 150.27 69.2491 153.09 72.9991 155.5C90.2791 166.62 113.699 170.95 113.699 170.95" stroke="#CC362D" stroke-width="1.5" stroke-miterlimit="10"/><path d="M47.8389 128.57C47.8389 128.57 69.4089 124.47 86.4589 113.79C86.6389 113.68 86.8189 113.56 86.9989 113.44C88.9289 112.22 90.7889 110.91 92.5789 109.55" stroke="#CC362D" stroke-width="1.5" stroke-miterlimit="10"/><path d="M101.688 101.76C110.218 93.63 115.608 86.13 115.608 86.13" stroke="#CC362D" stroke-width="1.5" stroke-miterlimit="10"/><path d="M60.2988 170.95C60.2988 170.95 83.7088 166.62 100.989 155.5C102.119 154.77 103.219 154.01 104.289 153.21" stroke="#CC362D" stroke-width="1.5" stroke-miterlimit="10"/><path d="M57.9092 84.99C57.9092 84.99 73.3792 81.96 84.5692 73.62C95.2492 65.65 101.689 52.35 101.689 52.35" stroke="#CC362D" stroke-width="1.5" stroke-miterlimit="10"/><path d="M65.3989 94.65C60.9689 89.73 58.3789 86.13 58.3789 86.13" stroke="#CC362D" stroke-width="1.5" stroke-miterlimit="10"/><path d="M47.8389 128.57C47.8389 128.57 50.3089 132.92 54.7689 138.52" stroke="#CC362D" stroke-width="1.5" stroke-miterlimit="10"/><path d="M113.259 145.29C121.439 136.88 126.159 128.57 126.159 128.57" stroke="#CC362D" stroke-width="1.5" stroke-miterlimit="10"/><path d="M127.169 132.09L153.169 152.59C155.069 154.09 154.799 156.56 152.619 157.79C145.139 161.96 128.359 168.41 109.649 171.72C109.099 171.82 108.549 171.92 107.999 172.01C107.289 172.13 106.569 172.24 105.849 172.35C105.779 172.36 105.719 172.37 105.649 172.38C99.4692 173.32 93.1592 173.88 86.9492 173.88C80.7392 173.88 74.3492 173.32 68.1492 172.37C67.9092 172.33 67.6592 172.29 67.4192 172.25C66.9492 172.18 66.4692 172.1 65.9992 172.01C65.0692 171.87 64.1392 171.7 63.2092 171.53C44.9592 168.16 28.6992 161.88 21.3792 157.79C19.1992 156.56 18.9292 154.09 20.8192 152.6C20.8192 152.6 27.4092 147.4 33.9592 142.23C40.4192 137.14 46.8192 132.09 46.8192 132.09C49.5392 129.94 47.6092 126.27 43.7692 126.27H20.3292C16.4792 126.27 14.5492 122.6 17.2792 120.45L57.1592 88.99C59.8792 86.84 57.9492 83.17 54.1092 83.17H42.9992C39.1392 83.17 37.2192 79.49 39.9392 77.35L83.5992 42.9C85.2992 41.57 88.0292 41.57 89.7192 42.9L133.389 77.35C136.099 79.49 134.179 83.17 130.329 83.17H119.889C116.049 83.17 114.109 86.84 116.839 88.99L156.719 120.45C159.449 122.6 157.519 126.27 153.679 126.27H130.229C126.389 126.27 124.449 129.94 127.169 132.09Z" stroke="#333333" stroke-width="1.5" stroke-miterlimit="10"/><path d="M86.499 33C90.9173 33 94.499 29.4183 94.499 25C94.499 20.5817 90.9173 17 86.499 17C82.0807 17 78.499 20.5817 78.499 25C78.499 29.4183 82.0807 33 86.499 33Z" fill="#FDF0DF"/><path d="M89.2691 17.67C90.0391 18.9 90.4791 20.34 90.4791 21.89C90.4791 26.31 86.8991 29.89 82.4791 29.89C81.2791 29.89 80.1391 29.62 79.1191 29.14C80.5291 31.4 83.0391 32.92 85.9091 32.92C90.3291 32.92 93.9091 29.34 93.9091 24.92C93.9091 21.7 92.0091 18.94 89.2691 17.67Z" fill="#EADCCC"/><path d="M86.499 33C90.9173 33 94.499 29.4183 94.499 25C94.499 20.5817 90.9173 17 86.499 17C82.0807 17 78.499 20.5817 78.499 25C78.499 29.4183 82.0807 33 86.499 33Z" stroke="#333333" stroke-width="1.5" stroke-miterlimit="10"/><path d="M107.999 172.01V179.5C107.999 181.71 106.209 183.5 103.999 183.5H69.999C67.789 183.5 65.999 181.71 65.999 179.5V172.01C66.469 172.1 66.949 172.18 67.419 172.25C67.659 172.29 67.909 172.33 68.149 172.37C74.349 173.32 80.709 173.88 86.949 173.88C93.189 173.88 99.469 173.32 105.649 172.38C105.719 172.37 105.779 172.36 105.849 172.35C106.569 172.24 107.289 172.13 107.999 172.01Z" fill="#B1743F"/><path d="M66.4795 180.89V181.37C67.1495 182.63 68.4695 183.5 69.9995 183.5H103.999C106.209 183.5 107.999 181.71 107.999 179.5V172.76C107.999 172.76 103.479 175.9 91.4795 178.9C79.4795 181.9 66.4795 180.9 66.4795 180.9V180.89Z" fill="#A5683A"/><path d="M107.999 172.01V179.5C107.999 181.71 106.209 183.5 103.999 183.5H69.999C67.789 183.5 65.999 181.71 65.999 179.5V172.01C66.469 172.1 66.949 172.18 67.419 172.25C67.659 172.29 67.909 172.33 68.149 172.37C74.349 173.32 80.709 173.88 86.949 173.88C93.189 173.88 99.469 173.32 105.649 172.38C105.719 172.37 105.779 172.36 105.849 172.35C106.569 172.24 107.289 172.13 107.999 172.01Z" stroke="#333333" stroke-width="1.5" stroke-miterlimit="10"/><path d="M75.999 98.5C75.999 100.37 75.139 102.04 73.799 103.15C72.769 103.99 71.439 104.5 69.999 104.5C66.689 104.5 63.999 101.81 63.999 98.5C63.999 97.03 64.519 95.69 65.399 94.65C66.499 93.34 68.149 92.5 69.999 92.5C73.309 92.5 75.999 95.19 75.999 98.5Z" fill="#CC362D"/><path d="M102.999 105.5C102.999 108.81 100.309 111.5 96.999 111.5C95.249 111.5 93.679 110.75 92.579 109.55C91.599 108.49 90.999 107.07 90.999 105.5C90.999 102.19 93.689 99.5 96.999 99.5C98.899 99.5 100.589 100.38 101.689 101.76C102.509 102.78 102.999 104.08 102.999 105.5Z" fill="#CC362D"/><path d="M114.999 149.5C114.999 152.81 112.309 155.5 108.999 155.5C107.089 155.5 105.379 154.6 104.289 153.21C103.479 152.19 102.999 150.9 102.999 149.5C102.999 146.19 105.689 143.5 108.999 143.5C110.669 143.5 112.179 144.18 113.259 145.29C114.339 146.37 114.999 147.85 114.999 149.5Z" fill="#CC362D"/><path d="M64.7295 143.01C64.7295 144.74 63.9995 146.29 62.8295 147.38C62.7295 147.48 62.6295 147.57 62.5295 147.66C61.4995 148.5 60.1695 149.01 58.7295 149.01C55.4195 149.01 52.7295 146.32 52.7295 143.01C52.7295 141.54 53.2495 140.2 54.1295 139.16C54.3295 138.93 54.5395 138.71 54.7695 138.52C55.8295 137.58 57.2095 137.01 58.7295 137.01C62.0395 137.01 64.7295 139.7 64.7295 143.01Z" fill="#CC362D"/><path d="M73.5991 94.28C73.7491 94.81 73.8391 95.37 73.8391 95.95C73.8391 97.68 73.1091 99.23 71.9391 100.32C71.8391 100.42 71.7391 100.51 71.6391 100.6C70.6091 101.44 69.2791 101.95 67.8391 101.95C66.3991 101.95 65.1091 101.45 64.0791 100.62C64.8091 103.12 67.1091 104.95 69.8391 104.95C71.2791 104.95 72.6091 104.44 73.6391 103.6C73.7391 103.51 73.8391 103.42 73.9391 103.32C75.1091 102.23 75.8391 100.68 75.8391 98.95C75.8391 97.06 74.9591 95.38 73.5991 94.28Z" fill="#B72C29"/><path d="M62.5991 138.28C62.7491 138.81 62.8391 139.37 62.8391 139.95C62.8391 141.68 62.1091 143.23 60.9391 144.32C60.8391 144.42 60.7391 144.51 60.6391 144.6C59.6091 145.44 58.2791 145.95 56.8391 145.95C55.3991 145.95 54.1091 145.45 53.0791 144.62C53.8091 147.12 56.1091 148.95 58.8391 148.95C60.2791 148.95 61.6091 148.44 62.6391 147.6C62.7391 147.51 62.8391 147.42 62.9391 147.32C64.1091 146.23 64.8391 144.68 64.8391 142.95C64.8391 141.06 63.9591 139.38 62.5991 138.28Z" fill="#B72C29"/><path d="M112.599 144.28C112.749 144.81 112.839 145.37 112.839 145.95C112.839 147.68 112.109 149.23 110.939 150.32C110.839 150.42 110.739 150.51 110.639 150.6C109.609 151.44 108.279 151.95 106.839 151.95C105.399 151.95 104.109 151.45 103.079 150.62C103.809 153.12 106.109 154.95 108.839 154.95C110.279 154.95 111.609 154.44 112.639 153.6C112.739 153.51 112.839 153.42 112.939 153.32C114.109 152.23 114.839 150.68 114.839 148.95C114.839 147.06 113.959 145.38 112.599 144.28Z" fill="#B72C29"/><path d="M100.599 101.28C100.749 101.81 100.839 102.37 100.839 102.95C100.839 104.68 100.109 106.23 98.9391 107.32C98.8391 107.42 98.7391 107.51 98.6391 107.6C97.6091 108.44 96.2791 108.95 94.8391 108.95C93.3991 108.95 92.1091 108.45 91.0791 107.62C91.8091 110.12 94.1091 111.95 96.8391 111.95C98.2791 111.95 99.6091 111.44 100.639 110.6C100.739 110.51 100.839 110.42 100.939 110.32C102.109 109.23 102.839 107.68 102.839 105.95C102.839 104.06 101.959 102.38 100.599 101.28Z" fill="#B72C29"/><path d="M75.999 98.5C75.999 100.37 75.139 102.04 73.799 103.15C72.769 103.99 71.439 104.5 69.999 104.5C66.689 104.5 63.999 101.81 63.999 98.5C63.999 97.03 64.519 95.69 65.399 94.65C66.499 93.34 68.149 92.5 69.999 92.5C73.309 92.5 75.999 95.19 75.999 98.5Z" stroke="#333333" stroke-width="1.5" stroke-miterlimit="10"/><path d="M102.999 105.5C102.999 108.81 100.309 111.5 96.999 111.5C95.249 111.5 93.679 110.75 92.579 109.55C91.599 108.49 90.999 107.07 90.999 105.5C90.999 102.19 93.689 99.5 96.999 99.5C98.899 99.5 100.589 100.38 101.689 101.76C102.509 102.78 102.999 104.08 102.999 105.5Z" stroke="#333333" stroke-width="1.5" stroke-miterlimit="10"/><path d="M114.999 149.5C114.999 152.81 112.309 155.5 108.999 155.5C107.089 155.5 105.379 154.6 104.289 153.21C103.479 152.19 102.999 150.9 102.999 149.5C102.999 146.19 105.689 143.5 108.999 143.5C110.669 143.5 112.179 144.18 113.259 145.29C114.339 146.37 114.999 147.85 114.999 149.5Z" stroke="#333333" stroke-width="1.5" stroke-miterlimit="10"/><path d="M64.7295 143.01C64.7295 144.74 63.9995 146.29 62.8295 147.38C62.7295 147.48 62.6295 147.57 62.5295 147.66C61.4995 148.5 60.1695 149.01 58.7295 149.01C55.4195 149.01 52.7295 146.32 52.7295 143.01C52.7295 141.54 53.2495 140.2 54.1295 139.16C54.3295 138.93 54.5395 138.71 54.7695 138.52C55.8295 137.58 57.2095 137.01 58.7295 137.01C62.0395 137.01 64.7295 139.7 64.7295 143.01Z" stroke="#333333" stroke-width="1.5" stroke-miterlimit="10"/><path d="M75.999 98.5C75.999 100.37 75.139 102.04 73.799 103.15C72.769 103.99 71.439 104.5 69.999 104.5C66.689 104.5 63.999 101.81 63.999 98.5C63.999 97.03 64.519 95.69 65.399 94.65C66.499 93.34 68.149 92.5 69.999 92.5C73.309 92.5 75.999 95.19 75.999 98.5Z" stroke="#333333" stroke-width="1.5" stroke-miterlimit="10"/><path d="M102.999 105.5C102.999 108.81 100.309 111.5 96.999 111.5C95.249 111.5 93.679 110.75 92.579 109.55C91.599 108.49 90.999 107.07 90.999 105.5C90.999 102.19 93.689 99.5 96.999 99.5C98.899 99.5 100.589 100.38 101.689 101.76C102.509 102.78 102.999 104.08 102.999 105.5Z" stroke="#333333" stroke-width="1.5" stroke-miterlimit="10"/><path d="M114.999 149.5C114.999 152.81 112.309 155.5 108.999 155.5C107.089 155.5 105.379 154.6 104.289 153.21C103.479 152.19 102.999 150.9 102.999 149.5C102.999 146.19 105.689 143.5 108.999 143.5C110.669 143.5 112.179 144.18 113.259 145.29C114.339 146.37 114.999 147.85 114.999 149.5Z" stroke="#333333" stroke-width="1.5" stroke-miterlimit="10"/><path d="M64.7295 143.01C64.7295 144.74 63.9995 146.29 62.8295 147.38C62.7295 147.48 62.6295 147.57 62.5295 147.66C61.4995 148.5 60.1695 149.01 58.7295 149.01C55.4195 149.01 52.7295 146.32 52.7295 143.01C52.7295 141.54 53.2495 140.2 54.1295 139.16C54.3295 138.93 54.5395 138.71 54.7695 138.52C55.8295 137.58 57.2095 137.01 58.7295 137.01C62.0395 137.01 64.7295 139.7 64.7295 143.01Z" stroke="#333333" stroke-width="1.5" stroke-miterlimit="10"/></svg>